{
	"asset":{
		"version":"2.0",
		"generator":"Created using the official Cinema 4D glTF Exporter 1.000x284978"
	},
	"scenes":[{
		"nodes":[0]
	}],
	"nodes":[{
		"name":"Null",
		"children":[1]
	},
	{
		"name":"Symmetry",
		"children":[2]
	},
	{
		"name":"Boole",
		"translation":[-0.003000000026077032,
		0.0,
		0.0],
		"rotation":[0.0,
		0.0,
		0.0,
		-1.0],
		"scale":[1.0,
		1.0,
		1.0],
		"children":[3,
		4]
	},
	{
		"name":"Torus.1",
		"translation":[0.0,
		0.0,
		0.0],
		"rotation":[0.7071067690849304,
		0.0,
		0.0,
		-0.7071067690849304],
		"scale":[1.0,
		1.0,
		1.0],
		"mesh":0
	},
	{
		"name":"Cube",
		"translation":[0.10000000149011612,
		0.0,
		0.0],
		"rotation":[0.0,
		0.0,
		0.0,
		-1.0],
		"scale":[1.0,
		1.0,
		1.0],
		"mesh":1
	}],
	"meshes":[{
		"name":"Torus.1",
		"primitives":[{
			"attributes":{
				"POSITION":1
			},
			"indices":0
		}]
	},
	{
		"name":"Cube",
		"primitives":[{
			"attributes":{
				"POSITION":3
			},
			"indices":2
		}]
	}],
	"accessors":[{
		"bufferView":0,
		"type":"SCALAR",
		"componentType":5123,
		"count":231240,
		"byteOffset":0,
		"min":[0],
		"max":[38633]
	},
	{
		"bufferView":1,
		"type":"VEC3",
		"componentType":5126,
		"count":38634,
		"byteOffset":0,
		"min":[-0.10184207558631897,
		-0.10480652749538422,
		-0.10199999809265137],
		"max":[0.10784207284450531,
		0.10480652749538422,
		0.10199999809265137]
	},
	{
		"bufferView":2,
		"type":"SCALAR",
		"componentType":5123,
		"count":540,
		"byteOffset":0,
		"min":[0],
		"max":[187]
	},
	{
		"bufferView":3,
		"type":"VEC3",
		"componentType":5126,
		"count":188,
		"byteOffset":0,
		"min":[-0.10042499005794525,
		-0.10199999809265137,
		-0.0036030106712132694],
		"max":[-0.09357500821352005,
		0.10199999809265137,
		0.0036030106712132694]
	}],
	"bufferViews":[{
		"target":34963,
		"buffer":0,
		"byteOffset":0,
		"byteLength":462480
	},
	{
		"target":34962,
		"buffer":0,
		"byteOffset":462480,
		"byteLength":463608
	},
	{
		"target":34963,
		"buffer":1,
		"byteOffset":0,
		"byteLength":1080
	},
	{
		"target":34962,
		"buffer":1,
		"byteOffset":1080,
		"byteLength":2256
	}],
	"buffers":[{
		"uri":"data:application/octet-stream;base64,",
		"byteLength":926088
	},
	{
		"uri":"data:application/octet-stream;base64,",
		"byteLength":3336
	}]
}